<svg xmlns="http://www.w3.org/2000/svg" viewBox="0 0 64 64" fill="none">
  <rect width="64" height="64" rx="14" fill="#0e0e10" />
  <path d="M22 18H42C45.3137 18 48 20.6863 48 24V40C48 43.3137 45.3137 46 42 46H22C18.6863 46 16 43.3137 16 40V24C16 20.6863 18.6863 18 22 18Z" fill="#1c1b1d" stroke="#45474a" stroke-width="2"/>
  <path d="M27 26C27 23.7909 28.7909 22 31 22H33C38.5228 22 43 26.4772 43 32C43 37.5228 38.5228 42 33 42H31C28.7909 42 27 40.2091 27 38V26Z" fill="#e5e1e4"/>
  <path d="M31 27H33C35.7614 27 38 29.2386 38 32C38 34.7614 35.7614 37 33 37H31V27Z" fill="#131315"/>
</svg>
